<?xml version="1.0" encoding="UTF-8" standalone="no"?>
<!-- Created with Inkscape (http://www.inkscape.org/) -->

<svg
   xmlns:dc="http://purl.org/dc/elements/1.1/"
   xmlns:cc="http://creativecommons.org/ns#"
   xmlns:rdf="http://www.w3.org/1999/02/22-rdf-syntax-ns#"
   xmlns:svg="http://www.w3.org/2000/svg"
   xmlns="http://www.w3.org/2000/svg"
   xmlns:sodipodi="http://sodipodi.sourceforge.net/DTD/sodipodi-0.dtd"
   xmlns:inkscape="http://www.inkscape.org/namespaces/inkscape"
   width="35.429688"
   height="50"
   viewBox="0 0 35.429688 50.000001"
   id="svg25113"
   version="1.1"
   inkscape:version="0.91 r13725"
   sodipodi:docname="css3.svg">
  <defs
     id="defs25115" />
  <sodipodi:namedview
     id="base"
     pagecolor="#ffffff"
     bordercolor="#666666"
     borderopacity="1.0"
     inkscape:pageopacity="0.0"
     inkscape:pageshadow="2"
     inkscape:zoom="0.513449"
     inkscape:cx="-120.17374"
     inkscape:cy="123.06519"
     inkscape:document-units="px"
     inkscape:current-layer="layer1"
     showgrid="false"
     inkscape:window-width="1639"
     inkscape:window-height="1026"
     inkscape:window-x="1961"
     inkscape:window-y="24"
     inkscape:window-maximized="1"
     units="px"
     fit-margin-top="0"
     fit-margin-left="0"
     fit-margin-right="0"
     fit-margin-bottom="0" />
  <metadata
     id="metadata25118">
    <rdf:RDF>
      <cc:Work
         rdf:about="">
        <dc:format>image/svg+xml</dc:format>
        <dc:type
           rdf:resource="http://purl.org/dc/dcmitype/StillImage" />
        <dc:title></dc:title>
      </cc:Work>
    </rdf:RDF>
  </metadata>
  <g
     inkscape:label="Layer 1"
     inkscape:groupmode="layer"
     id="layer1"
     transform="translate(0,-16.162206)">
    <g
       id="g14191"
       transform="matrix(0.09765625,0,0,0.09765625,0,59.701052)">
      <path
         id="Shape-1"
         d="m 284.30372,-426.88087 -30.11197,0 31.31459,33.97148 0,16.17056 -64.50021,0 0,-18.93252 31.3085,0 -31.3085,-33.9727 0,-16.19373 63.29759,0 0,18.95691 0,0 z m -76.0825,0 -30.11197,0 31.31338,33.97148 0,16.17056 -64.50022,0 0,-18.93252 31.31216,0 -31.31216,-33.9727 0,-16.19373 63.29881,0 0,18.95691 0,0 z m -75.33848,0.76945 -32.49283,0 0,29.64745 32.49283,0 0,19.72514 -55.586641,0 0,-69.09895 55.586641,0 0,19.72636 0,0 z m 0,0"
         inkscape:connector-curvature="0"
         style="fill:#131313;fill-rule:evenodd;stroke:none;stroke-width:1" />
      <path
         sodipodi:nodetypes="cccccc"
         id="path19848-2"
         d="M 33.01852,23.959325 0,-355.85005 l 362.8,0 -33.04901,379.748064 -148.57297,42.264191 z"
         inkscape:connector-curvature="0"
         style="fill:#1572b6;fill-rule:evenodd;stroke:none;stroke-width:1" />
      <path
         id="path19850-8"
         d="M 181.40244,34.686857 301.45393,1.4116619 329.69854,-314.92096 l -148.2961,0 0,349.607817 z m 0,0"
         inkscape:connector-curvature="0"
         style="fill:#33a9dc;fill-rule:evenodd;stroke:none;stroke-width:1" />
      <g
         transform="matrix(1.2197008,0,0,1.2194076,66.996945,-272.84652)"
         id="Group-9"
         style="fill:none;fill-rule:evenodd;stroke:none;stroke-width:1">
        <path
           id="path19853-3"
           d="m 93.797,75.496 49.275,0 3.403,-38.132 -52.678,0 0,-37.239 0.129,0 93.246,0 -0.893,9.991 -9.152,102.616 -83.33,0 0,-37.236 z m 0,0"
           inkscape:connector-curvature="0"
           style="fill:#ffffff" />
        <path
           id="path19855-6"
           d="m 94.02,172.204 -0.163,0.046 -41.472,-11.199 -2.652,-29.698 -20.151,0 -17.228,0 5.216,58.467 76.278,21.176 0.172,-0.048 0,-38.744 z m 0,0"
           inkscape:connector-curvature="0"
           style="fill:#ebebeb" />
        <path
           id="path19857-8"
           d="m 139.907,111.156 -4.484,49.87 -41.532,11.21 0,38.742 76.339,-21.158 0.56,-6.29 6.478,-72.374 -37.361,0 z m 0,0"
           inkscape:connector-curvature="0"
           style="fill:#ffffff" />
        <path
           id="path19859-0"
           d="m 93.926,0.125 0,23.128 0,14.019 0,0.092 -89.828,0 -0.119,0 -0.747,-8.37 -1.697,-18.878 -0.89,-9.991 93.281,0 z m 0,0"
           inkscape:connector-curvature="0"
           style="fill:#ebebeb" />
        <path
           id="path19861-2"
           d="m 93.797,75.5 0,23.129 0,14.017 0,0.092 -40.828,0 -0.119,0 -0.746,-8.369 -1.698,-18.878 -0.89,-9.991 44.281,0 z m 0,0"
           inkscape:connector-curvature="0"
           style="fill:#ebebeb" />
      </g>
    </g>
  </g>
</svg>
