<?xml version="1.0" encoding="UTF-8" standalone="no"?>
<svg
   xmlns:dc="http://purl.org/dc/elements/1.1/"
   xmlns:cc="http://creativecommons.org/ns#"
   xmlns:rdf="http://www.w3.org/1999/02/22-rdf-syntax-ns#"
   xmlns:svg="http://www.w3.org/2000/svg"
   xmlns="http://www.w3.org/2000/svg"
   xmlns:sodipodi="http://sodipodi.sourceforge.net/DTD/sodipodi-0.dtd"
   xmlns:inkscape="http://www.inkscape.org/namespaces/inkscape"
   viewBox="0 0 35.429688 50"
   id="svg8817"
   version="1.1"
   inkscape:version="0.91 r13725"
   sodipodi:docname="HTML5.svg"
   width="35.429688"
   height="50">
  <metadata
     id="metadata8835">
    <rdf:RDF>
      <cc:Work
         rdf:about="">
        <dc:format>image/svg+xml</dc:format>
        <dc:type
           rdf:resource="http://purl.org/dc/dcmitype/StillImage" />
        <dc:title>HTML5 Logo</dc:title>
      </cc:Work>
    </rdf:RDF>
  </metadata>
  <defs
     id="defs8833" />
  <sodipodi:namedview
     pagecolor="#ffffff"
     bordercolor="#666666"
     borderopacity="1"
     objecttolerance="10"
     gridtolerance="10"
     guidetolerance="10"
     inkscape:pageopacity="0"
     inkscape:pageshadow="2"
     inkscape:window-width="1639"
     inkscape:window-height="1026"
     id="namedview8831"
     showgrid="false"
     fit-margin-top="0"
     fit-margin-left="0"
     fit-margin-right="0"
     fit-margin-bottom="0"
     borderlayer="false"
     inkscape:zoom="13.390625"
     inkscape:cx="26.380025"
     inkscape:cy="30.295106"
     inkscape:window-x="1961"
     inkscape:window-y="24"
     inkscape:window-maximized="1"
     inkscape:current-layer="svg8817" />
  <title
     id="title8819">HTML5 Logo</title>
	<g
	   id="g16000">
	<g
	   id="g15000">
  <g
     id="g14207">
    <path
       id="path8821"
       d="m 3.3007812,0 2.2460938,0 0,2.2265625 2.0703125,0 0,-2.2265625 2.2460938,0 0,6.7382812 -2.2460938,0 0,-2.2460937 -2.0507813,0 0,2.2460937 -2.265625,0 m 9.5312498,-4.4921874 -1.982422,0 0,-2.2460938 6.220703,0 0,2.2460938 -1.992187,0 0,4.4921874 -2.246094,0 M 18.056641,0 20.410156,0 21.855469,2.3730469 23.300781,0 l 2.353516,0 0,6.7382812 -2.246094,0 0,-3.3398437 -1.572266,2.421875 -1.572265,-2.421875 0,3.3398437 -2.207031,0 M 26.767578,0 l 2.246094,0 0,4.5117187 3.183594,0 0,2.2265625 -5.429688,0"
       inkscape:connector-curvature="0" />
    <path
       id="path8823"
       d="M 3.2226563,45.996094 0,9.8242188 l 35.429687,0 L 32.207031,45.976562 17.685547,50"
       inkscape:connector-curvature="0"
       style="fill:#e44d26" />
    <path
       id="path8825"
       d="m 17.714844,46.923828 0,-34.130859 14.482422,0 -2.763672,30.859375"
       inkscape:connector-curvature="0"
       style="fill:#f16529" />
    <path
       id="path8827"
       d="m 6.5820313,17.216797 11.1328127,0 0,4.433594 -6.269531,0 0.410156,4.541015 5.859375,0 0,4.423828 -9.9218752,0 m 0.1953125,2.226563 4.4531247,0 0.3125,3.544922 4.960938,1.328125 0,4.628906 -9.1015628,-2.539062"
       inkscape:connector-curvature="0"
       style="fill:#ebebeb" />
    <path
       id="path8829"
       d="m 28.808594,17.216797 -11.113282,0 0,4.433594 10.703125,0 m -0.40039,4.541015 -10.302735,0 0,4.433594 5.46875,0 -0.517578,5.761719 -4.951172,1.328125 0,4.609375 9.082032,-2.519532"
       inkscape:connector-curvature="0"
       style="fill:#ffffff" />
  </g>
	<animateTransform
                 repeatCount="indefinite"
                 dur="8s"
                 begin="0s"
                 to="1 1"
                 from="-1 1"
                 type="scale"
				 values="1 1; -1 1; 1 1"
                 keyTimes="0;  0.5 ;1"
                 attributeName="transform" />
		
	</g>
	<animateTransform
                 repeatCount="indefinite"
                 dur="8s"
                 begin="0s"
                 to="1000 0"
                 from="0 0"
                 type="translate"
				 values="0 0; 35 0; 0 0"
                 keyTimes="0; 0.5;1"
                 attributeName="transform" />
	</g>
	

</svg>
