<?xml version="1.0" encoding="UTF-8" standalone="no"?>
<svg
   xmlns:dc="http://purl.org/dc/elements/1.1/"
   xmlns:cc="http://creativecommons.org/ns#"
   xmlns:rdf="http://www.w3.org/1999/02/22-rdf-syntax-ns#"
   xmlns:svg="http://www.w3.org/2000/svg"
   xmlns="http://www.w3.org/2000/svg"
   xmlns:sodipodi="http://sodipodi.sourceforge.net/DTD/sodipodi-0.dtd"
   xmlns:inkscape="http://www.inkscape.org/namespaces/inkscape"
   viewBox="0 0 35.429688 50"
   id="svg8817"
   version="1.1"
   inkscape:version="0.91 r13725"
   sodipodi:docname="js_logo.svg"
   width="35.429688"
   height="50">
  <metadata
     id="metadata8835">
    <rdf:RDF>
      <cc:Work
         rdf:about="">
        <dc:format>image/svg+xml</dc:format>
        <dc:type
           rdf:resource="http://purl.org/dc/dcmitype/StillImage" />
        <dc:title>HTML5 Logo</dc:title>
      </cc:Work>
    </rdf:RDF>
  </metadata>
  <defs
     id="defs8833" />
  <sodipodi:namedview
     pagecolor="#ffffff"
     bordercolor="#666666"
     borderopacity="1"
     objecttolerance="10"
     gridtolerance="10"
     guidetolerance="10"
     inkscape:pageopacity="0"
     inkscape:pageshadow="2"
     inkscape:window-width="1639"
     inkscape:window-height="1026"
     id="namedview8831"
     showgrid="false"
     fit-margin-top="0"
     fit-margin-left="0"
     fit-margin-right="0"
     fit-margin-bottom="0"
     borderlayer="false"
     inkscape:zoom="2"
     inkscape:cx="-35.425646"
     inkscape:cy="-35.619901"
     inkscape:window-x="1961"
     inkscape:window-y="24"
     inkscape:window-maximized="1"
     inkscape:current-layer="svg8817"
     showguides="true"
     inkscape:guide-bbox="true" />
  <title
     id="title8819">HTML5 Logo</title>
  <g
     id="g14117">
    <path
       inkscape:connector-curvature="0"
       id="path14100"
       d="m 10.878539,5.6156406 0,-1.083334 1.580211,0 1.580211,0 0,-2.25 0,-2.24999999 1.081198,0 1.081197,0 0,3.33333399 0,3.3333329 -2.661409,0 -2.661408,0 0,-1.0833329 z m 7.651549,0 0,-1.083334 1.034807,0 1.034808,0 -1.034808,-1.046151 -1.034807,-1.046151 0,-1.203849 0,-1.20384899 2.744578,0 2.744577,0 0,1.16666699 0,1.166667 -0.998028,0 c -0.548916,0 -0.998028,0.0586 -0.998028,0.130217 0,0.07162 0.449112,0.575522 0.998028,1.119783 l 0.998028,0.989565 0,1.046884 0,1.0468839 -2.744577,0 -2.744578,0 0,-1.0833329 z"
       style="fill:#000000" />
    <path
       id="path8823"
       d="M 3.2226563,45.996094 0,9.8242188 l 35.429687,0 L 32.207031,45.976562 17.685547,50"
       inkscape:connector-curvature="0"
       style="fill:#e7a42b;fill-opacity:1" />
    <path
       id="path8825"
       d="m 17.714844,46.923828 0,-34.130859 14.482422,0 -2.763672,30.859375"
       inkscape:connector-curvature="0"
       style="fill:#f2bf22;fill-opacity:1" />
    <g
       style="fill:#ecedee;fill-opacity:1"
       transform="translate(-40.014144,-0.30792348)"
       id="g14092">
      <path
         style="fill:#ecedee;fill-opacity:1;fill-rule:evenodd;stroke:none;stroke-width:1px;stroke-linecap:butt;stroke-linejoin:miter;stroke-opacity:1"
         d="m 57.72864,31.067 -9.874636,-1.06e-4 1.225698,-13.539254 8.648938,0 0,4.574788 -4.958867,-0.01172 -0.176981,4.422504 L 57.729,26.513 Z"
         id="path14066"
         inkscape:connector-curvature="0"
         sodipodi:nodetypes="ccccccccc" />
      <path
         style="fill:#ecedee;fill-opacity:1;fill-rule:evenodd;stroke:none;stroke-width:1px;stroke-linecap:butt;stroke-linejoin:miter;stroke-opacity:1"
         d="m 48.061164,33.185498 4.574788,0 0.25895,3.40088 4.833738,1.484622 0,4.678 -9.045995,-2.589109 z"
         id="path14080"
         inkscape:connector-curvature="0"
         sodipodi:nodetypes="ccccccc" />
    </g>
    <g
       transform="translate(-40.013784,-0.31182973)"
       id="g14096">
      <path
         style="fill:#ffffff;fill-opacity:1;fill-rule:evenodd;stroke:none;stroke-width:1px;stroke-linecap:butt;stroke-linejoin:miter;stroke-opacity:1"
         d="m 57.729,17.528 9.329205,0 0.970828,7.089337 -4.480747,0.03734 -0.224037,-2.552677 -5.595249,0 z"
         id="path14033"
         inkscape:connector-curvature="0"
         sodipodi:nodetypes="ccccccc" />
      <path
         style="fill:#ffffff;fill-opacity:1;fill-rule:evenodd;stroke:none;stroke-width:1px;stroke-linecap:butt;stroke-linejoin:miter;stroke-opacity:1"
         d="m 57.72864,38.071 4.868264,-1.398306 0.414321,-5.605694 -5.282585,3e-6 0,-4.554 10.349485,0 -1.203125,13.612 -9.14636,2.623997 z"
         id="path14082"
         inkscape:connector-curvature="0"
         sodipodi:nodetypes="ccccccccc" />
    </g>
  </g>
</svg>
